<svg width="158" height="151" viewBox="0 0 158 151" fill="none" xmlns="http://www.w3.org/2000/svg">
<path d="M42.5585 77.4933V144.043C45.7943 143.459 60.8447 145.444 64.6118 146.06C67.778 146.577 73.9678 147.404 76.6409 148.076C82.4852 148.934 85.6119 149.212 90.6749 149.085H140.796C151.823 144.043 149.64 133.96 142.623 131.943C149.78 131.943 157.087 127.865 157.087 119.798C157.087 113.345 152.157 109.088 148.816 107.743C152.491 106.735 158 102.409 158 95.0878C158 87.7835 151.823 84.5515 148.816 83.5432C152.157 82.5349 158 78.6142 158 69.4622C158 63.971 152.977 58.9373 146.127 58.4797L109.721 58.335C99.6967 58.335 105.711 50.2684 112.728 28.0851C119.745 5.90183 98.6943 -13.2564 92.6797 11.9518C86.6652 37.1601 78.6458 40.1851 66.6167 59.3433C56.9934 74.6699 46.5682 77.8294 42.5585 77.4933Z" fill="#0063BA"/>
<path d="M34.0824 150H4.0097C1.7952 150 0 148.194 0 145.967V75.3836C0 73.156 1.7952 71.3502 4.0097 71.3502H34.0824C36.2969 71.3502 38.0921 73.156 38.0921 75.3836V145.967C38.0921 148.194 36.2969 150 34.0824 150Z" fill="#0063BA"/>
<path d="M34.0824 137.04C34.0824 141.495 30.492 145.107 26.063 145.107C21.6341 145.107 18.0436 141.495 18.0436 137.04C18.0436 132.585 21.6341 128.973 26.063 128.973C30.492 128.973 34.0824 132.585 34.0824 137.04Z" fill="white"/>
<path d="M90.1597 77.6887V61.8708H92.2529V68.3663H100.475V61.8708H102.568V77.6887H100.475V70.2329H92.2529V77.6887H90.1597Z" fill="white"/>
<path d="M118.294 73.9986L120.301 74.2467C119.985 75.4192 119.399 76.3292 118.543 76.9766C117.687 77.6239 116.593 77.9476 115.263 77.9476C113.587 77.9476 112.256 77.4333 111.27 76.4047C110.292 75.3689 109.803 73.9194 109.803 72.0564C109.803 70.1286 110.299 68.6324 111.292 67.5678C112.285 66.5032 113.572 65.9709 115.155 65.9709C116.687 65.9709 117.938 66.4924 118.91 67.5355C119.881 68.5785 120.366 70.0459 120.366 71.9377C120.366 72.0528 120.363 72.2254 120.355 72.4556H111.81C111.882 73.7144 112.238 74.6783 112.878 75.3473C113.518 76.0163 114.317 76.3507 115.273 76.3507C115.985 76.3507 116.593 76.1637 117.097 75.7897C117.6 75.4156 118 74.8186 118.294 73.9986ZM111.918 70.8587H118.316C118.23 69.8948 117.985 69.1719 117.582 68.69C116.964 67.9419 116.162 67.5678 115.176 67.5678C114.284 67.5678 113.533 67.8663 112.921 68.4634C112.317 69.0604 111.982 69.8589 111.918 70.8587ZM122.708 77.6887V61.8708H124.65V77.6887H122.708ZM127.671 82.0801V66.2299H129.44V67.7189C129.858 67.1362 130.329 66.701 130.854 66.4133C131.379 66.1184 132.016 65.9709 132.764 65.9709C133.742 65.9709 134.605 66.2227 135.353 66.7262C136.101 67.2297 136.666 67.9419 137.047 68.8626C137.428 69.7761 137.619 70.7796 137.619 71.873C137.619 73.0455 137.407 74.1029 136.982 75.0452C136.565 75.9803 135.954 76.6996 135.148 77.2031C134.35 77.6995 133.508 77.9476 132.623 77.9476C131.976 77.9476 131.393 77.811 130.875 77.5376C130.365 77.2643 129.944 76.919 129.613 76.5018V82.0801H127.671ZM129.43 72.024C129.43 73.4986 129.728 74.5884 130.325 75.2933C130.922 75.9983 131.645 76.3507 132.494 76.3507C133.357 76.3507 134.094 75.9875 134.706 75.261C135.324 74.5273 135.634 73.3943 135.634 71.8622C135.634 70.402 135.332 69.3086 134.727 68.5821C134.13 67.8556 133.415 67.4923 132.58 67.4923C131.753 67.4923 131.019 67.8807 130.379 68.6576C129.746 69.4273 129.43 70.5494 129.43 72.024Z" fill="white"/>
<path d="M88.3578 100.212L94.4324 84.3944H96.6875L103.161 100.212H100.777L98.9318 95.4216H92.3176L90.5805 100.212H88.3578ZM92.9219 93.7168H98.2844L96.6336 89.3361C96.13 88.0054 95.756 86.912 95.5114 86.056C95.31 87.0703 95.0259 88.0773 94.659 89.0772L92.9219 93.7168Z" fill="white"/>
<path d="M109.45 100.212V88.7535H111.198V90.3828C112.04 89.1239 113.255 88.4945 114.845 88.4945C115.536 88.4945 116.169 88.6204 116.744 88.8722C117.327 89.1168 117.762 89.4404 118.05 89.8433C118.337 90.2461 118.539 90.7244 118.654 91.2783C118.726 91.638 118.762 92.2674 118.762 93.1665V100.212H116.82V93.2421C116.82 92.4508 116.744 91.861 116.593 91.4725C116.442 91.0769 116.172 90.764 115.784 90.5338C115.403 90.2964 114.953 90.1778 114.435 90.1778C113.608 90.1778 112.892 90.4403 112.288 90.9654C111.691 91.4905 111.392 92.4868 111.392 93.9542V100.212H109.45ZM129.185 100.212V98.7665C128.458 99.903 127.39 100.471 125.98 100.471C125.067 100.471 124.225 100.219 123.455 99.716C122.693 99.2124 122.1 98.5111 121.675 97.6119C121.258 96.7056 121.049 95.6662 121.049 94.4937C121.049 93.35 121.24 92.3141 121.621 91.3862C122.002 90.4511 122.574 89.7354 123.337 89.239C124.099 88.7427 124.952 88.4945 125.894 88.4945C126.585 88.4945 127.2 88.642 127.739 88.9369C128.279 89.2246 128.717 89.6023 129.055 90.0699V84.3944H130.987V100.212H129.185ZM123.045 94.4937C123.045 95.9611 123.355 97.0581 123.973 97.7846C124.592 98.5111 125.322 98.8744 126.164 98.8744C127.013 98.8744 127.732 98.5291 128.322 97.8385C128.919 97.1408 129.217 96.0798 129.217 94.6555C129.217 93.0874 128.915 91.9365 128.311 91.2028C127.707 90.4691 126.962 90.1022 126.077 90.1022C125.214 90.1022 124.491 90.4547 123.909 91.1596C123.333 91.8646 123.045 92.9759 123.045 94.4937Z" fill="white"/>
<path d="M90.0733 122.736V106.918H92.2205L100.529 119.337V106.918H102.536V122.736H100.388L92.0803 110.306V122.736H90.0733Z" fill="white"/>
<path d="M109.727 117.007C109.727 114.885 110.317 113.313 111.497 112.292C112.482 111.443 113.684 111.018 115.101 111.018C116.676 111.018 117.964 111.536 118.963 112.572C119.963 113.601 120.463 115.025 120.463 116.845C120.463 118.32 120.24 119.481 119.794 120.33C119.355 121.172 118.712 121.826 117.863 122.294C117.021 122.761 116.101 122.995 115.101 122.995C113.497 122.995 112.198 122.481 111.206 121.452C110.22 120.424 109.727 118.942 109.727 117.007ZM111.723 117.007C111.723 118.474 112.044 119.575 112.684 120.309C113.324 121.035 114.13 121.398 115.101 121.398C116.065 121.398 116.867 121.031 117.507 120.298C118.147 119.564 118.467 118.445 118.467 116.942C118.467 115.525 118.143 114.453 117.496 113.727C116.856 112.993 116.057 112.626 115.101 112.626C114.13 112.626 113.324 112.989 112.684 113.716C112.044 114.442 111.723 115.539 111.723 117.007ZM126.991 120.999L127.272 122.715C126.725 122.83 126.236 122.887 125.804 122.887C125.099 122.887 124.553 122.776 124.164 122.553C123.776 122.33 123.502 122.038 123.344 121.679C123.186 121.312 123.107 120.546 123.107 119.381V112.788H121.682V111.277H123.107V108.44L125.038 107.274V111.277H126.991V112.788H125.038V119.488C125.038 120.042 125.07 120.398 125.135 120.557C125.207 120.715 125.319 120.841 125.47 120.934C125.628 121.028 125.851 121.075 126.139 121.075C126.354 121.075 126.639 121.049 126.991 120.999Z" fill="white"/>
<path d="M90.0949 145.26V129.442H95.5438C96.7738 129.442 97.7125 129.518 98.3599 129.669C99.2663 129.877 100.04 130.255 100.68 130.802C101.514 131.506 102.136 132.409 102.546 133.51C102.964 134.603 103.172 135.855 103.172 137.265C103.172 138.466 103.032 139.53 102.751 140.458C102.471 141.386 102.111 142.156 101.672 142.767C101.234 143.372 100.752 143.85 100.227 144.202C99.7087 144.548 99.0793 144.81 98.3384 144.99C97.6046 145.17 96.7594 145.26 95.8027 145.26H90.0949ZM92.1882 143.393H95.5654C96.6084 143.393 97.4248 143.296 98.0147 143.102C98.6117 142.908 99.0865 142.634 99.4389 142.282C99.9353 141.786 100.32 141.12 100.593 140.286C100.874 139.444 101.014 138.426 101.014 137.232C101.014 135.578 100.741 134.308 100.194 133.423C99.6547 132.531 98.9965 131.934 98.2197 131.632C97.6586 131.417 96.7558 131.309 95.5114 131.309H92.1882V143.393Z" fill="white"/>
<path d="M110.461 131.676V129.442H112.403V131.676H110.461ZM110.461 145.26V133.801H112.403V145.26H110.461ZM123.215 141.57L125.222 141.818C124.905 142.99 124.319 143.9 123.463 144.548C122.607 145.195 121.513 145.519 120.183 145.519C118.507 145.519 117.176 145.005 116.19 143.976C115.212 142.94 114.723 141.491 114.723 139.628C114.723 137.7 115.219 136.204 116.212 135.139C117.205 134.074 118.492 133.542 120.075 133.542C121.607 133.542 122.859 134.064 123.83 135.107C124.801 136.15 125.286 137.617 125.286 139.509C125.286 139.624 125.283 139.797 125.275 140.027H116.73C116.802 141.286 117.158 142.25 117.798 142.919C118.438 143.587 119.237 143.922 120.193 143.922C120.906 143.922 121.513 143.735 122.017 143.361C122.52 142.987 122.92 142.39 123.215 141.57ZM116.838 138.43H123.236C123.15 137.466 122.905 136.743 122.503 136.261C121.884 135.513 121.082 135.139 120.096 135.139C119.204 135.139 118.453 135.438 117.841 136.035C117.237 136.632 116.903 137.43 116.838 138.43Z" fill="white"/>
</svg>
